<svg xmlns="http://www.w3.org/2000/svg">
  <!-- Icon sprite. Shapes use currentColor, so size and color are still
       driven by Tailwind utilities on the referencing <svg> element. -->
  <symbol id="icon-logo-ring" viewBox="0 0 24 24" fill="none" stroke="currentColor">
    <circle cx="12" cy="12" r="10" stroke="currentColor" stroke-width="3.5"/>
  </symbol>
  <symbol id="icon-search" viewBox="0 0 20 20" fill="none" stroke="currentColor" stroke-width="1.8">
    <circle cx="9" cy="9" r="6"/>
    <path d="M13.5 13.5 18 18" stroke-linecap="round"/>
  </symbol>
  <symbol id="icon-menu" viewBox="0 0 24 24" fill="none" stroke="currentColor" stroke-width="1.8">
    <path d="M3 6h18M3 12h18M3 18h18" stroke-linecap="round"/>
  </symbol>
  <symbol id="icon-close" viewBox="0 0 24 24" fill="none" stroke="currentColor" stroke-width="1.8">
    <path d="M5 5l14 14M19 5L5 19" stroke-linecap="round"/>
  </symbol>
  <symbol id="icon-check" viewBox="0 0 12 12" fill="none" stroke="currentColor" stroke-width="1.5">
    <path d="M1.5 6.5 4.5 9.5 10.5 2.5" stroke-linecap="round" stroke-linejoin="round"/>
  </symbol>
  <symbol id="icon-chevron-down" viewBox="0 0 20 20" fill="none" stroke="currentColor" stroke-width="1.5">
    <path d="M5 7.5 10 12.5 15 7.5" stroke-linecap="round" stroke-linejoin="round"/>
  </symbol>
  <symbol id="icon-x-circle" viewBox="0 0 20 20" fill="currentColor">
    <path fill-rule="evenodd" d="M10 1a9 9 0 100 18 9 9 0 000-18zm3.3 12.3a1 1 0 01-1.4 0L10 11.4l-1.9 1.9a1 1 0 11-1.4-1.4L8.6 10 6.7 8.1a1 1 0 111.4-1.4L10 8.6l1.9-1.9a1 1 0 111.4 1.4L11.4 10l1.9 1.9a1 1 0 010 1.4z" clip-rule="evenodd"/>
  </symbol>
  <symbol id="icon-check-circle" viewBox="0 0 20 20" fill="currentColor">
    <path fill-rule="evenodd" d="M10 1a9 9 0 100 18 9 9 0 000-18zm4.2 6.7l-5 5a1 1 0 01-1.4 0l-2.2-2.2a1 1 0 111.4-1.4l1.5 1.5 4.3-4.3a1 1 0 111.4 1.4z" clip-rule="evenodd"/>
  </symbol>
  <symbol id="icon-chevron-right" viewBox="0 0 12 12" fill="none" stroke="currentColor" stroke-width="1.6">
    <path d="M4 2.5 7.5 6 4 9.5" stroke-linecap="round" stroke-linejoin="round"/>
  </symbol>
  <symbol id="icon-github" viewBox="0 0 24 24" fill="currentColor">
    <path d="M12 .5a11.5 11.5 0 00-3.6 22.4c.6.1.8-.2.8-.6v-2c-3.2.7-3.9-1.5-3.9-1.5-.5-1.3-1.3-1.7-1.3-1.7-1-.7.1-.7.1-.7 1.1.1 1.7 1.2 1.7 1.2 1 1.8 2.7 1.3 3.4 1 .1-.7.4-1.3.7-1.6-2.6-.3-5.3-1.3-5.3-5.7 0-1.3.5-2.3 1.2-3.1-.1-.3-.5-1.5.1-3.1 0 0 1-.3 3.2 1.2a11 11 0 015.8 0c2.2-1.5 3.2-1.2 3.2-1.2.6 1.6.2 2.8.1 3.1.8.8 1.2 1.8 1.2 3.1 0 4.4-2.7 5.4-5.3 5.7.4.4.8 1.1.8 2.2v3.3c0 .4.2.7.8.6A11.5 11.5 0 0012 .5z"/>
  </symbol>
  <symbol id="icon-twitch" viewBox="0 0 24 24" fill="currentColor">
    <path d="M4 2 2.5 6v14h5v3h3l3-3h4L23 16V2H4zm17 13-3 3h-5l-3 3v-3H5.5V4H21v11zM17 7v6h-2V7h2zm-5 0v6h-2V7h2z"/>
  </symbol>
  <symbol id="icon-twitter" viewBox="0 0 24 24" fill="currentColor">
    <path d="M23 4.9c-.8.4-1.7.6-2.6.8a4.6 4.6 0 002-2.5c-.9.5-1.9.9-2.9 1.1a4.5 4.5 0 00-7.8 3.1c0 .4 0 .7.1 1a12.9 12.9 0 01-9.3-4.8 4.5 4.5 0 001.4 6.1c-.7 0-1.4-.2-2-.6a4.5 4.5 0 003.6 4.5c-.6.2-1.3.2-2 .1a4.5 4.5 0 004.2 3.2A9.1 9.1 0 011 19a12.8 12.8 0 007 2c8.3 0 12.9-7 12.9-13v-.6c.9-.6 1.6-1.4 2.1-2.3z"/>
  </symbol>
  <symbol id="icon-facebook" viewBox="0 0 24 24" fill="currentColor">
    <path d="M22 12a10 10 0 10-11.6 9.9v-7H7.9V12h2.5V9.8c0-2.5 1.5-3.9 3.8-3.9 1.1 0 2.2.2 2.2.2v2.5h-1.3c-1.2 0-1.6.8-1.6 1.6V12h2.8l-.4 2.9h-2.4v7A10 10 0 0022 12z"/>
  </symbol>
  <symbol id="icon-linkedin" viewBox="0 0 24 24" fill="currentColor">
    <path d="M20.5 2h-17A1.5 1.5 0 002 3.5v17A1.5 1.5 0 003.5 22h17a1.5 1.5 0 001.5-1.5v-17A1.5 1.5 0 0020.5 2zM8 19H5V9.5h3V19zM6.5 8.2a1.7 1.7 0 110-3.5 1.7 1.7 0 010 3.5zM19 19h-3v-5c0-1.2-.4-2-1.5-2-.8 0-1.3.6-1.5 1.1l-.1.8V19h-3V9.5h3v1.3c.4-.6 1.1-1.5 2.7-1.5 2 0 3.4 1.3 3.4 4V19z"/>
  </symbol>
  <symbol id="icon-instagram" viewBox="0 0 24 24" fill="currentColor">
    <path d="M12 2.2c3.2 0 3.6 0 4.9.1 1.2 0 1.8.2 2.2.4.6.2 1 .5 1.4 1 .5.4.8.8 1 1.4.2.4.4 1 .4 2.2.1 1.3.1 1.7.1 4.9s0 3.6-.1 4.9c0 1.2-.2 1.8-.4 2.2-.2.6-.5 1-1 1.4-.4.5-.8.8-1.4 1-.4.2-1 .4-2.2.4-1.3.1-1.7.1-4.9.1s-3.6 0-4.9-.1c-1.2 0-1.8-.2-2.2-.4a3.8 3.8 0 01-1.4-1c-.5-.4-.8-.8-1-1.4-.2-.4-.4-1-.4-2.2C2.2 15.6 2.2 15.2 2.2 12s0-3.6.1-4.9c0-1.2.2-1.8.4-2.2.2-.6.5-1 1-1.4.4-.5.8-.8 1.4-1 .4-.2 1-.4 2.2-.4 1.3-.1 1.7-.1 4.7-.1zm0 1.8c-3.1 0-3.5 0-4.7.1-1.1 0-1.7.2-2.1.3-.5.2-.9.4-1.2.8-.4.3-.6.7-.8 1.2-.1.4-.3 1-.3 2.1-.1 1.2-.1 1.6-.1 4.7s0 3.5.1 4.7c0 1.1.2 1.7.3 2.1.2.5.4.9.8 1.2.3.4.7.6 1.2.8.4.1 1 .3 2.1.3 1.2.1 1.6.1 4.7.1s3.5 0 4.7-.1c1.1 0 1.7-.2 2.1-.3.5-.2.9-.4 1.2-.8.4-.3.6-.7.8-1.2.1-.4.3-1 .3-2.1.1-1.2.1-1.6.1-4.7s0-3.5-.1-4.7c0-1.1-.2-1.7-.3-2.1a3.2 3.2 0 00-.8-1.2c-.3-.4-.7-.6-1.2-.8-.4-.1-1-.3-2.1-.3-1.2-.1-1.6-.1-4.7-.1zm0 3.1a4.9 4.9 0 110 9.8 4.9 4.9 0 010-9.8zm0 8a3.1 3.1 0 100-6.2 3.1 3.1 0 000 6.2zm6.2-8.2a1.1 1.1 0 11-2.3 0 1.1 1.1 0 012.3 0z"/>
  </symbol>
  <symbol id="icon-youtube" viewBox="0 0 24 24" fill="currentColor">
    <path d="M23 7.5s-.2-1.6-.9-2.3c-.9-.9-1.8-.9-2.3-1C17.4 4 12 4 12 4s-5.4 0-7.8.2c-.5.1-1.4.1-2.3 1-.7.7-.9 2.3-.9 2.3S.8 9.4.8 11.3v1.4c0 1.9.2 3.8.2 3.8s.2 1.6.9 2.3c.9.9 2 .9 2.5 1 1.8.2 7.6.2 7.6.2s5.4 0 7.8-.2c.5-.1 1.4-.1 2.3-1 .7-.7.9-2.3.9-2.3s.2-1.9.2-3.8v-1.4c0-1.9-.2-3.8-.2-3.8zM9.7 15.1V9l6.3 3.1-6.3 3z"/>
  </symbol>
</svg>
